<svg xmlns="http://www.w3.org/2000/svg" viewBox="0 0 512 512">
    <path fill="#FFD700" d="M256 512c141.4 0 256-114.6 256-256S397.4 0 256 0S0 114.6 0 256S114.6 512 256 512zM153.5 224c22.1 0 40-17.9 40-40s-17.9-40-40-40s-40 17.9-40 40s17.9 40 40 40zm9.6 32c-35.3 0-64 28.7-64 64H320c0-35.3-28.7-64-64-64h-92.8zm243.4-3.5c-11.1-16.6-28.8-28.5-49.5-28.5c-35.3 0-64 28.7-64 64v32c0 17.7-14.3 32-32 32h-16c-17.7 0-32-14.3-32-32V320c0-70.7 57.3-128 128-128c50.5 0 94.1 29.3 115.2 71.5c4.4 8.7 6.8 18.2 6.8 28.5c0 35.3-28.7 64-64 64h-8.8c12.5 13.4 20.8 30.6 20.8 50.5c0 8.8-7.2 16-16 16s-16-7.2-16-16c0-19.8-12.2-36.8-29.5-45.3c-2.4-1.2-5.1-1.8-7.8-1.8H224c-17.7 0-32 14.3-32 32v32c0 17.7 14.3 32 32 32h16c17.7 0 32-14.3 32-32v-32c0-35.3 28.7-64 64-64h8.8c12.5-13.4 20.8-30.6 20.8-50.5c0-8.8 7.2-16 16-16s16 7.2 16 16c0 19.8 12.2 36.8 29.5 45.3c2.4 1.2 5.1 1.8 7.8 1.8h32c17.7 0 32-14.3 32-32v-32c0-17.7-14.3-32-32-32z"/>
</svg>